<svg height="123" width="74" xmlns="http://www.w3.org/2000/svg"><g fill="#ff9e2b"><circle cx="4.5" cy="4.5" r="4.5"/><circle cx="26.167" cy="4.5" r="4.5"/><circle cx="47.833" cy="4.5" r="4.5"/><circle cx="69.5" cy="4.5" r="4.5"/><circle cx="4.5" cy="50.1" r="4.5"/><circle cx="26.167" cy="50.1" r="4.5"/><circle cx="47.833" cy="50.1" r="4.5"/><circle cx="69.5" cy="50.1" r="4.5"/><circle cx="4.5" cy="27.3" r="4.5"/><circle cx="26.167" cy="27.3" r="4.5"/><circle cx="47.833" cy="27.3" r="4.5"/><circle cx="69.5" cy="27.3" r="4.5"/><circle cx="4.5" cy="72.9" r="4.5"/><circle cx="26.167" cy="72.9" r="4.5"/><circle cx="47.833" cy="72.9" r="4.5"/><circle cx="69.5" cy="72.9" r="4.5"/><circle cx="4.5" cy="118.5" r="4.5"/><circle cx="26.167" cy="118.5" r="4.5"/><circle cx="47.833" cy="118.5" r="4.5"/><circle cx="69.5" cy="118.5" r="4.5"/><circle cx="4.5" cy="95.7" r="4.5"/><circle cx="26.167" cy="95.7" r="4.5"/><circle cx="47.833" cy="95.7" r="4.5"/><circle cx="69.5" cy="95.7" r="4.5"/></g></svg>