<svg height="517" width="1600" xmlns="http://www.w3.org/2000/svg"><path d="m171.715 0c20.145 64.814 50.298 156.159 74.285 204.434 39.666 79.83 71.66 37.324 75.121 13.226s36.055-56.45 122.024 109.23c85.968 165.681 164.035 176.49 201.865 70.311s106.48-69.521 179.43 20.839c80.207 99.348 250.7 156.474 199.28 10.594-56.621-160.631-7.87-146.304 111.746-106.137s160.48 56.398 198.629 10.865c38.148-45.533-12.767-59.019-44.207-95.89-31.441-36.872.064-49.012 53.049-60.473 52.984-11.46 99.36-14.035 107.216-61.537 7.858-47.502-98.365-37.75 13.733-104.164 6.322-3.746 11.8-7.52 16.539-11.297h-136.979c-85.902 20.45-212.327 42.846-366.652 47.422-132.876 3.939-312.59-19.898-470.574-47.423zm659.224 0c187.291 20.873 345.19 12.17 448.584 0h-448.583z" fill="#36197f"/></svg>