<svg height="93" width="72" xmlns="http://www.w3.org/2000/svg"><path d="m13.457 92.605c4.222 1.255 18.903 1.084 28.69-25.282 10.883-29.317 16.003-33.91 24.925-43.261 12.273-12.864.45-32.164-22.503-20.418-22.952 11.745-44.829 49.44-44.567 66.466.176 11.363 3.565 19.555 13.455 22.495z" fill="#fe744f"/><path d="m55.658 5.276a1.506 1.516 0 0 0 -1.06.398s-16.98 15.258-29.586 37.406c-9.265 16.275-11.33 38.413-11.768 49.454.073.022.14.05.213.073.682.202 1.657.35 2.819.375.45-10.72 2.47-32.798 11.35-48.396 12.324-21.651 28.979-36.652 28.979-36.652a1.506 1.516 0 0 0 -.947-2.658z" fill="#da6048"/></svg>